<svg xmlns="http://www.w3.org/2000/svg" xmlns:xlink="http://www.w3.org/1999/xlink" width="500" zoomAndPan="magnify" viewBox="0 0 375 374.999991" height="500" preserveAspectRatio="xMidYMid meet" version="1.0"><defs><g/><clipPath id="112a7714db"><path d="M 45.304688 22.039062 L 329.695312 22.039062 L 329.695312 328.644531 L 45.304688 328.644531 Z M 45.304688 22.039062 " clip-rule="nonzero"/></clipPath><clipPath id="8b29089d97"><path d="M 187.5 22.039062 L 329.695312 104.769531 L 329.695312 245.578125 L 187.5 328.308594 L 45.304688 245.578125 L 45.304688 104.769531 Z M 187.5 22.039062 " clip-rule="nonzero"/></clipPath><clipPath id="5cb1c1cc6b"><path d="M 45.304688 22.042969 L 329.554688 22.042969 L 329.554688 328.039062 L 45.304688 328.039062 Z M 45.304688 22.042969 " clip-rule="nonzero"/></clipPath><clipPath id="41d16dee79"><path d="M 187.496094 22.042969 L 329.683594 104.769531 L 329.683594 245.574219 L 187.496094 328.300781 L 45.304688 245.574219 L 45.304688 104.769531 Z M 187.496094 22.042969 " clip-rule="nonzero"/></clipPath><clipPath id="a8154e6879"><path d="M 118.183594 57.648438 L 257 57.648438 L 257 179.472656 L 118.183594 179.472656 Z M 118.183594 57.648438 " clip-rule="nonzero"/></clipPath><clipPath id="d914db0b50"><path d="M 178 154 L 241 154 L 241 233 L 178 233 Z M 178 154 " clip-rule="nonzero"/></clipPath><clipPath id="1a43d230ed"><path d="M 199.011719 146.585938 L 248.601562 170.9375 L 216.449219 236.421875 L 166.855469 212.070312 Z M 199.011719 146.585938 " clip-rule="nonzero"/></clipPath><clipPath id="37fbfedd66"><path d="M 196.570312 145.375 L 250.613281 171.910156 L 215.335938 243.753906 L 161.292969 217.21875 Z M 196.570312 145.375 " clip-rule="nonzero"/></clipPath></defs><g clip-path="url(#112a7714db)"><g clip-path="url(#8b29089d97)"><path fill="#4169e1" d="M 45.304688 22.039062 L 329.695312 22.039062 L 329.695312 328.644531 L 45.304688 328.644531 Z M 45.304688 22.039062 " fill-opacity="1" fill-rule="nonzero"/></g></g><g clip-path="url(#5cb1c1cc6b)"><g clip-path="url(#41d16dee79)"><path stroke-linecap="butt" transform="matrix(0.75, 0, 0, 0.75, 45.305505, 22.041817)" fill="none" stroke-linejoin="miter" d="M 189.587464 0.00153509 L 379.17081 110.303626 L 379.17081 298.043221 L 189.587464 408.345312 L -0.00108963 298.043221 L -0.00108963 110.303626 Z M 189.587464 0.00153509 " stroke="#ffffff" stroke-width="16" stroke-opacity="1" stroke-miterlimit="4"/></g></g><g clip-path="url(#a8154e6879)"><path fill="#ffffff" d="M 254.492188 106.578125 C 252.992188 102.820312 250.773438 99.367188 247.875 96.519531 C 247.246094 95.902344 246.527344 95.296875 245.746094 94.753906 C 245.730469 90.46875 244.722656 86.257812 242.796875 82.515625 C 240.855469 78.746094 237.992188 75.445312 234.300781 73.050781 C 232.03125 71.578125 229.472656 70.355469 226.789062 69.484375 C 224.105469 68.628906 221.292969 68.125 218.484375 68.125 C 217.5 68.125 216.503906 68.1875 215.535156 68.3125 C 215.507812 68.273438 215.484375 68.238281 215.457031 68.199219 C 214.007812 66.207031 212.105469 64.394531 210.175781 62.894531 C 209.207031 62.148438 208.238281 61.480469 207.292969 60.925781 C 206.347656 60.371094 205.453125 59.90625 204.632812 59.578125 C 201.304688 58.230469 197.839844 57.648438 194.371094 57.648438 C 190.0625 57.648438 185.738281 58.542969 181.65625 59.96875 C 180.847656 60.246094 179.953125 60.613281 179.058594 61.066406 C 175.128906 59.238281 170.867188 58.34375 166.621094 58.34375 C 161.152344 58.34375 155.679688 59.816406 150.878906 62.679688 C 148.914062 63.851562 146.027344 65.792969 143.59375 68.148438 C 142.382812 69.332031 141.273438 70.617188 140.46875 71.992188 C 140.378906 72.144531 140.292969 72.296875 140.214844 72.457031 C 137.835938 72.75 135.578125 73.515625 133.511719 74.652344 C 129.617188 76.792969 126.363281 80.210938 124.082031 84.21875 C 121.800781 88.226562 120.480469 92.8125 120.480469 97.324219 C 120.480469 99.304688 120.730469 101.257812 121.273438 103.136719 C 121.109375 103.300781 120.957031 103.476562 120.820312 103.652344 C 119.898438 104.773438 119.242188 106.070312 118.816406 107.472656 C 118.386719 108.859375 118.183594 110.34375 118.183594 111.84375 C 118.183594 114.542969 118.828125 117.3125 119.988281 119.796875 C 120.566406 121.03125 121.273438 122.191406 122.105469 123.238281 C 122.9375 124.269531 123.882812 125.191406 124.941406 125.921875 C 126.441406 126.96875 128.054688 127.738281 129.742188 128.265625 C 131.429688 128.796875 133.183594 129.085938 134.960938 129.160156 C 135.3125 129.175781 135.617188 128.898438 135.628906 128.542969 C 135.640625 128.191406 135.363281 127.886719 135.011719 127.875 C 133.347656 127.8125 131.695312 127.535156 130.132812 127.042969 C 128.558594 126.550781 127.058594 125.835938 125.671875 124.863281 C 124.726562 124.207031 123.871094 123.390625 123.113281 122.429688 C 121.980469 121.007812 121.058594 119.292969 120.441406 117.476562 C 119.8125 115.652344 119.484375 113.722656 119.484375 111.855469 C 119.484375 110.621094 119.632812 109.410156 119.9375 108.277344 C 120.164062 107.433594 120.480469 106.625 120.894531 105.882812 C 121.148438 105.417969 121.4375 104.976562 121.765625 104.574219 C 122.308594 106.035156 123.050781 107.433594 123.984375 108.730469 C 124.675781 109.703125 125.671875 110.496094 126.792969 111.0625 C 127.914062 111.628906 129.175781 111.957031 130.421875 111.957031 C 131.027344 111.957031 131.644531 111.882812 132.226562 111.707031 C 132.816406 111.53125 133.371094 111.265625 133.890625 110.898438 C 134.632812 110.355469 135.1875 109.664062 135.539062 108.90625 C 135.894531 108.140625 136.058594 107.320312 136.058594 106.488281 C 136.058594 105.65625 135.894531 104.824219 135.589844 104.054688 C 135.289062 103.273438 134.847656 102.554688 134.265625 101.949219 C 133.5625 101.207031 132.703125 100.679688 131.773438 100.324219 C 130.839844 99.972656 129.84375 99.808594 128.859375 99.808594 C 128.21875 99.808594 127.585938 99.882812 126.984375 100.011719 C 125.457031 100.351562 124.132812 100.929688 123.011719 101.6875 C 122.785156 101.835938 122.570312 102 122.355469 102.164062 C 121.964844 100.601562 121.777344 98.976562 121.777344 97.339844 C 121.777344 94.503906 122.332031 91.601562 123.351562 88.855469 C 124.878906 84.734375 127.449219 80.941406 130.6875 78.179688 C 132.3125 76.808594 134.101562 75.671875 136.019531 74.890625 C 137.179688 74.414062 138.375 74.070312 139.609375 73.859375 C 139.585938 73.945312 139.546875 74.035156 139.523438 74.121094 C 139.296875 74.851562 139.15625 75.597656 139.15625 76.339844 C 139.15625 76.996094 139.257812 77.664062 139.472656 78.320312 C 139.6875 78.976562 140.027344 79.628906 140.480469 80.261719 C 141.0625 81.066406 141.828125 81.695312 142.710938 82.136719 C 143.582031 82.578125 144.550781 82.820312 145.535156 82.820312 C 145.761719 82.820312 145.976562 82.804688 146.203125 82.78125 C 146.78125 82.71875 147.375 82.554688 147.917969 82.289062 C 148.457031 82.023438 148.964844 81.648438 149.355469 81.140625 C 149.632812 80.777344 149.832031 80.375 149.972656 79.945312 C 150.097656 79.53125 150.160156 79.089844 150.160156 78.648438 C 150.160156 77.753906 149.921875 76.871094 149.492188 76.101562 C 149.140625 75.457031 148.671875 74.902344 148.144531 74.425781 C 147.351562 73.71875 146.390625 73.191406 145.382812 72.847656 C 144.375 72.507812 143.292969 72.332031 142.234375 72.332031 C 142.183594 72.332031 142.132812 72.332031 142.070312 72.332031 C 141.96875 72.332031 141.867188 72.332031 141.777344 72.34375 C 142.003906 71.992188 142.257812 71.628906 142.523438 71.285156 C 143.746094 69.699219 145.371094 68.1875 147.007812 66.902344 C 148.648438 65.613281 150.300781 64.542969 151.546875 63.800781 C 156.121094 61.039062 161.363281 59.628906 166.609375 59.628906 C 170.363281 59.628906 174.105469 60.359375 177.625 61.835938 C 177.183594 62.085938 176.753906 62.363281 176.335938 62.652344 C 175.226562 63.433594 174.207031 64.328125 173.4375 65.351562 C 173.0625 65.867188 172.746094 66.410156 172.519531 66.988281 C 172.304688 67.570312 172.179688 68.1875 172.179688 68.816406 C 172.179688 69.496094 172.316406 70.191406 172.632812 70.882812 C 172.933594 71.578125 173.402344 72.269531 174.03125 72.964844 C 174.648438 73.644531 175.417969 74.160156 176.25 74.511719 C 177.082031 74.867188 177.988281 75.042969 178.882812 75.042969 C 179.855469 75.042969 180.824219 74.828125 181.707031 74.386719 C 182.789062 73.84375 183.671875 72.976562 184.289062 71.953125 C 184.90625 70.933594 185.25 69.75 185.25 68.550781 C 185.25 68.148438 185.210938 67.757812 185.132812 67.355469 C 185.007812 66.75 184.808594 66.183594 184.53125 65.640625 C 184.113281 64.832031 183.558594 64.117188 182.902344 63.496094 C 182.261719 62.878906 181.515625 62.351562 180.75 61.921875 C 180.671875 61.882812 180.585938 61.835938 180.507812 61.796875 C 181.050781 61.558594 181.582031 61.355469 182.070312 61.179688 C 186.054688 59.792969 190.226562 58.933594 194.359375 58.933594 C 197.675781 58.933594 200.976562 59.488281 204.128906 60.777344 C 205.261719 61.242188 206.636719 61.996094 208.046875 62.957031 C 210.164062 64.40625 212.359375 66.332031 214.007812 68.4375 C 214.046875 68.476562 214.070312 68.515625 214.097656 68.5625 C 212.246094 68.941406 210.441406 69.585938 208.726562 70.519531 C 207.734375 71.058594 206.835938 71.816406 206.144531 72.722656 C 205.453125 73.632812 204.945312 74.691406 204.769531 75.835938 C 204.707031 76.214844 204.683594 76.582031 204.683594 76.933594 C 204.683594 77.800781 204.859375 78.597656 205.1875 79.289062 C 205.425781 79.808594 205.753906 80.261719 206.144531 80.664062 C 206.722656 81.257812 207.429688 81.695312 208.199219 81.988281 C 208.96875 82.277344 209.800781 82.429688 210.644531 82.429688 C 211.476562 82.429688 212.320312 82.289062 213.125 81.988281 C 213.933594 81.683594 214.691406 81.230469 215.34375 80.625 C 216.265625 79.769531 216.945312 78.835938 217.375 77.878906 C 217.816406 76.90625 218.003906 75.914062 218.003906 74.917969 C 218.003906 74.070312 217.867188 73.226562 217.613281 72.410156 C 217.324219 71.425781 216.871094 70.46875 216.316406 69.535156 C 217.035156 69.460938 217.753906 69.421875 218.46875 69.421875 C 221.117188 69.421875 223.800781 69.886719 226.386719 70.71875 C 228.957031 71.539062 231.414062 72.722656 233.59375 74.136719 C 237.097656 76.402344 239.808594 79.515625 241.648438 83.109375 C 243.351562 86.421875 244.308594 90.140625 244.433594 93.933594 C 244.054688 93.722656 243.664062 93.507812 243.261719 93.316406 C 242.390625 92.902344 241.484375 92.5625 240.566406 92.335938 C 239.644531 92.09375 238.710938 91.96875 237.777344 91.96875 C 237.097656 91.96875 236.417969 92.042969 235.761719 92.195312 C 234.78125 92.433594 233.835938 92.863281 232.976562 93.53125 C 232.132812 94.1875 231.375 95.082031 230.773438 96.203125 C 230.191406 97.261719 229.914062 98.421875 229.914062 99.554688 C 229.914062 100.703125 230.191406 101.824219 230.734375 102.832031 C 231.277344 103.839844 232.082031 104.722656 233.117188 105.367188 C 233.746094 105.757812 234.390625 106.046875 235.019531 106.222656 C 235.660156 106.414062 236.292969 106.5 236.921875 106.5 C 238.054688 106.5 239.140625 106.210938 240.125 105.71875 C 241.597656 104.976562 242.871094 103.777344 243.816406 102.367188 C 244.761719 100.941406 245.390625 99.304688 245.566406 97.628906 C 245.617188 97.199219 245.644531 96.757812 245.667969 96.328125 C 246.121094 96.683594 246.550781 97.0625 246.941406 97.4375 C 249.703125 100.148438 251.832031 103.464844 253.269531 107.066406 C 254.707031 110.671875 255.449219 114.566406 255.449219 118.460938 C 255.449219 119.46875 255.398438 120.476562 255.296875 121.484375 C 255.195312 122.445312 255.019531 123.441406 254.757812 124.398438 C 254.351562 125.835938 253.722656 127.195312 252.867188 128.316406 C 252.4375 128.871094 251.945312 129.375 251.390625 129.804688 C 250.835938 130.234375 250.21875 130.574219 249.511719 130.824219 C 248.339844 131.253906 247.167969 131.429688 245.984375 131.429688 C 244.988281 131.429688 243.992188 131.292969 242.996094 131.050781 C 241.507812 130.699219 240.046875 130.09375 238.636719 129.375 C 237.226562 128.644531 235.863281 127.789062 234.589844 126.917969 C 227.949219 122.34375 221.421875 117.050781 214.414062 112.6875 C 210.910156 110.507812 207.277344 108.566406 203.460938 107.066406 C 199.816406 105.644531 195.984375 104.621094 191.929688 104.179688 C 192.796875 101.761719 193.957031 99.46875 195.394531 97.402344 C 196.3125 97.855469 197.246094 98.296875 198.179688 98.6875 C 202.25 100.386719 206.546875 101.445312 210.921875 101.445312 C 212.144531 101.445312 213.367188 101.359375 214.601562 101.195312 C 215.496094 101.070312 216.417969 100.867188 217.3125 100.5625 C 218.648438 100.125 219.945312 99.480469 220.992188 98.585938 C 221.519531 98.132812 221.988281 97.628906 222.351562 97.046875 C 222.730469 96.46875 223.019531 95.824219 223.183594 95.105469 C 223.285156 94.667969 223.335938 94.238281 223.335938 93.796875 C 223.335938 93.152344 223.234375 92.523438 223.046875 91.917969 C 222.769531 91.011719 222.300781 90.152344 221.695312 89.410156 C 221.105469 88.667969 220.375 88.011719 219.554688 87.519531 C 218.621094 86.953125 217.613281 86.574219 216.582031 86.335938 C 215.546875 86.097656 214.476562 85.996094 213.417969 85.996094 C 212.6875 85.996094 211.953125 86.046875 211.238281 86.121094 C 208.550781 86.4375 206.042969 87.203125 203.773438 88.339844 C 200.359375 90.039062 197.460938 92.546875 195.15625 95.574219 C 195.105469 95.636719 195.054688 95.699219 195.015625 95.761719 C 192.394531 94.375 189.886719 92.75 187.542969 91 C 186.03125 89.863281 184.542969 88.667969 183.003906 87.507812 C 181.480469 86.347656 179.90625 85.214844 178.226562 84.230469 C 176.640625 83.296875 174.976562 82.554688 173.273438 82.039062 C 171.574219 81.519531 169.820312 81.242188 168.042969 81.242188 C 166.332031 81.242188 164.589844 81.507812 162.839844 82.0625 C 159.03125 83.273438 155.53125 85.476562 152.65625 88.328125 C 149.78125 91.175781 147.539062 94.652344 146.253906 98.433594 C 145.835938 99.65625 145.523438 101.019531 145.523438 102.378906 C 145.523438 103.035156 145.597656 103.703125 145.773438 104.332031 C 145.949219 104.976562 146.242188 105.582031 146.667969 106.136719 C 146.78125 106.285156 146.910156 106.4375 147.035156 106.578125 C 146.746094 106.980469 146.46875 107.371094 146.203125 107.722656 C 144.679688 109.839844 143.316406 112.183594 142.347656 114.667969 C 141.363281 117.152344 140.769531 119.785156 140.769531 122.46875 C 140.769531 123.855469 140.933594 125.242188 141.289062 126.628906 C 141.714844 128.34375 142.398438 129.894531 143.277344 131.253906 C 144.601562 133.308594 146.378906 134.960938 148.445312 136.183594 C 150.511719 137.417969 152.882812 138.234375 155.390625 138.652344 C 156.941406 138.902344 158.492188 139.015625 160.042969 139.015625 C 161.804688 139.015625 163.570312 138.878906 165.335938 138.675781 C 168.195312 138.347656 170.941406 137.632812 173.664062 137 C 176.386719 136.371094 179.074219 135.839844 181.832031 135.839844 C 182.199219 135.839844 182.5625 135.855469 182.929688 135.867188 C 184.582031 135.953125 186.207031 136.042969 187.820312 136.167969 C 187.945312 137.367188 188.246094 138.550781 188.664062 139.710938 C 189.535156 142.105469 190.917969 144.375 192.53125 146.402344 C 194.144531 148.433594 195.960938 150.195312 197.699219 151.570312 C 199.25 152.792969 200.851562 153.941406 202.402344 155.113281 C 203.953125 156.285156 205.4375 157.492188 206.773438 158.855469 C 208.539062 160.644531 209.75 162.585938 210.53125 164.679688 C 211.3125 166.769531 211.664062 169.011719 211.664062 171.394531 C 211.664062 172.226562 211.628906 173.085938 211.539062 173.953125 C 211.425781 175.203125 210.996094 176.6875 210.304688 178.300781 C 210.164062 178.628906 210.316406 179.007812 210.644531 179.148438 C 210.972656 179.285156 211.351562 179.132812 211.488281 178.804688 C 212.21875 177.105469 212.6875 175.503906 212.824219 174.066406 C 212.914062 173.160156 212.949219 172.265625 212.949219 171.382812 C 212.949219 168.875 212.585938 166.46875 211.742188 164.210938 C 210.894531 161.957031 209.574219 159.851562 207.695312 157.933594 C 206.296875 156.511719 204.746094 155.261719 203.183594 154.078125 C 201.605469 152.894531 200.007812 151.757812 198.496094 150.550781 C 196.289062 148.808594 193.894531 146.339844 192.078125 143.578125 C 191.171875 142.195312 190.402344 140.742188 189.875 139.257812 C 189.507812 138.261719 189.257812 137.265625 189.128906 136.269531 C 190.101562 136.371094 191.070312 136.496094 192.015625 136.648438 C 194.941406 137.125 197.738281 137.945312 200.320312 139.40625 C 203.320312 141.109375 206.347656 143.050781 209.523438 144.613281 C 211.109375 145.394531 212.734375 146.074219 214.414062 146.578125 C 216.089844 147.082031 217.828125 147.410156 219.628906 147.460938 C 219.808594 147.460938 219.996094 147.472656 220.171875 147.472656 C 221.484375 147.472656 222.832031 147.308594 224.105469 146.945312 C 225.378906 146.566406 226.601562 145.988281 227.660156 145.144531 C 228.867188 144.171875 229.777344 142.910156 230.367188 141.527344 C 230.960938 140.140625 231.261719 138.601562 231.261719 137.078125 C 231.261719 135.5 230.949219 133.914062 230.332031 132.464844 C 229.421875 130.347656 227.960938 128.554688 226.210938 127.121094 C 224.457031 125.683594 222.402344 124.585938 220.261719 123.867188 C 219.164062 123.503906 218.042969 123.363281 216.921875 123.363281 C 215.195312 123.363281 213.46875 123.679688 211.765625 124.019531 C 210.0625 124.347656 208.402344 124.6875 206.824219 124.761719 C 206.445312 124.777344 206.054688 124.789062 205.664062 124.789062 C 204.734375 124.789062 203.738281 124.75 202.730469 124.710938 C 201.707031 124.675781 200.660156 124.625 199.628906 124.625 C 197.8125 124.625 196 124.75 194.335938 125.242188 C 193.503906 125.492188 192.710938 125.835938 191.976562 126.300781 C 191.246094 126.765625 190.59375 127.371094 190.023438 128.117188 C 189.230469 129.175781 188.664062 130.269531 188.296875 131.40625 C 187.933594 132.527344 187.769531 133.6875 187.769531 134.832031 C 187.769531 134.847656 187.769531 134.871094 187.769531 134.882812 C 186.195312 134.757812 184.605469 134.667969 183.015625 134.59375 C 182.625 134.570312 182.234375 134.570312 181.84375 134.570312 C 178.921875 134.570312 176.136719 135.136719 173.402344 135.765625 C 170.652344 136.394531 167.957031 137.101562 165.222656 137.417969 C 163.496094 137.617188 161.78125 137.746094 160.078125 137.746094 C 158.59375 137.746094 157.117188 137.644531 155.644531 137.402344 C 152.480469 136.886719 149.605469 135.675781 147.335938 133.835938 C 146.203125 132.917969 145.207031 131.820312 144.402344 130.574219 C 143.59375 129.324219 142.976562 127.914062 142.574219 126.324219 C 142.246094 125.054688 142.105469 123.765625 142.105469 122.480469 C 142.105469 120 142.660156 117.515625 143.59375 115.148438 C 144.527344 112.777344 145.824219 110.519531 147.300781 108.480469 C 147.539062 108.152344 147.789062 107.796875 148.042969 107.445312 C 148.054688 107.445312 148.054688 107.457031 148.066406 107.457031 C 148.824219 108.011719 149.667969 108.390625 150.574219 108.644531 C 151.484375 108.894531 152.441406 108.996094 153.410156 108.996094 C 155.351562 108.996094 157.371094 108.566406 159.171875 107.875 C 160.078125 107.523438 160.921875 107.117188 161.691406 106.652344 C 162.460938 106.1875 163.140625 105.667969 163.707031 105.125 C 164.328125 104.523438 164.816406 103.816406 165.160156 103.074219 C 165.5 102.328125 165.6875 101.535156 165.6875 100.742188 C 165.6875 100.300781 165.625 99.859375 165.5 99.441406 C 165.296875 98.8125 164.945312 98.21875 164.414062 97.742188 C 163.886719 97.261719 163.203125 96.898438 162.359375 96.683594 C 161.667969 96.492188 160.988281 96.417969 160.320312 96.417969 C 159.523438 96.417969 158.753906 96.53125 158.011719 96.746094 C 156.714844 97.125 155.492188 97.777344 154.34375 98.609375 C 152.628906 99.859375 151.09375 101.472656 149.746094 103.109375 C 149.078125 103.929688 148.445312 104.734375 147.867188 105.519531 C 147.828125 105.46875 147.789062 105.417969 147.753906 105.367188 C 147.4375 104.949219 147.210938 104.484375 147.074219 103.980469 C 146.933594 103.476562 146.859375 102.933594 146.859375 102.378906 C 146.859375 101.234375 147.136719 99.984375 147.511719 98.851562 C 148.722656 95.285156 150.867188 91.957031 153.601562 89.246094 C 156.335938 86.535156 159.675781 84.433594 163.28125 83.296875 C 164.894531 82.78125 166.507812 82.542969 168.09375 82.542969 C 169.734375 82.542969 171.359375 82.792969 172.960938 83.273438 C 174.546875 83.75 176.109375 84.457031 177.636719 85.339844 C 179.25 86.285156 180.773438 87.382812 182.285156 88.527344 C 183.796875 89.675781 185.285156 90.871094 186.824219 92.03125 C 189.167969 93.785156 191.6875 95.421875 194.308594 96.820312 C 192.796875 99.039062 191.574219 101.496094 190.679688 104.082031 C 189.632812 104.003906 188.589844 103.96875 187.542969 103.96875 C 183.546875 103.96875 179.550781 104.535156 175.746094 105.679688 C 171.9375 106.828125 168.308594 108.566406 165.082031 110.925781 C 164 111.707031 162.941406 112.601562 162.03125 113.648438 C 161.578125 114.164062 161.175781 114.71875 160.824219 115.324219 C 160.46875 115.914062 160.191406 116.558594 159.992188 117.238281 C 159.777344 117.957031 159.6875 118.675781 159.6875 119.394531 C 159.6875 120.363281 159.863281 121.320312 160.179688 122.230469 C 160.660156 123.589844 161.453125 124.863281 162.460938 125.933594 C 163.46875 127.007812 164.691406 127.875 166.054688 128.457031 C 167.714844 129.148438 169.480469 129.453125 171.246094 129.453125 C 173.980469 129.453125 176.714844 128.734375 179.199219 127.648438 C 180.800781 126.945312 182.347656 126.0625 183.75 124.964844 C 185.148438 123.878906 186.382812 122.582031 187.328125 121.070312 C 188.046875 119.910156 188.574219 118.699219 188.980469 117.464844 C 189.582031 115.601562 189.925781 113.683594 190.238281 111.78125 C 190.554688 109.878906 190.855469 108 191.359375 106.234375 C 191.4375 105.984375 191.511719 105.730469 191.585938 105.46875 C 195.632812 105.871094 199.425781 106.867188 203.070312 108.289062 C 208.664062 110.484375 213.871094 113.671875 218.9375 117.1875 C 224.003906 120.703125 228.917969 124.535156 233.933594 128.003906 C 235.660156 129.199219 237.589844 130.371094 239.621094 131.253906 C 240.640625 131.695312 241.6875 132.058594 242.769531 132.324219 C 243.839844 132.589844 244.9375 132.726562 246.058594 132.726562 C 247.371094 132.726562 248.707031 132.515625 250.015625 132.046875 C 251.113281 131.65625 252.058594 131.050781 252.867188 130.320312 C 254.0625 129.210938 254.933594 127.8125 255.539062 126.300781 C 256.140625 124.789062 256.496094 123.1875 256.644531 121.636719 C 256.746094 120.589844 256.808594 119.53125 256.808594 118.488281 C 256.761719 114.390625 255.976562 110.332031 254.492188 106.578125 Z M 123.339844 102.972656 C 124.386719 102.175781 125.671875 101.574219 127.234375 101.21875 C 127.75 101.105469 128.292969 101.042969 128.835938 101.042969 C 129.679688 101.042969 130.523438 101.183594 131.292969 101.472656 C 132.0625 101.761719 132.753906 102.203125 133.308594 102.78125 C 133.761719 103.261719 134.128906 103.839844 134.367188 104.472656 C 134.621094 105.101562 134.746094 105.78125 134.746094 106.4375 C 134.746094 107.105469 134.621094 107.75 134.34375 108.316406 C 134.078125 108.894531 133.675781 109.398438 133.109375 109.804688 C 132.71875 110.078125 132.289062 110.292969 131.835938 110.421875 C 131.382812 110.558594 130.890625 110.621094 130.386719 110.621094 C 129.363281 110.621094 128.28125 110.34375 127.324219 109.867188 C 126.363281 109.386719 125.53125 108.707031 124.980469 107.9375 C 123.984375 106.550781 123.226562 105.039062 122.710938 103.464844 C 122.910156 103.3125 123.113281 103.148438 123.339844 102.972656 Z M 142.070312 73.605469 C 142.121094 73.605469 142.15625 73.605469 142.207031 73.605469 C 143.429688 73.605469 144.703125 73.871094 145.785156 74.398438 C 146.328125 74.664062 146.832031 74.992188 147.261719 75.371094 C 147.691406 75.761719 148.054688 76.203125 148.332031 76.707031 C 148.660156 77.285156 148.835938 77.980469 148.835938 78.632812 C 148.835938 78.949219 148.800781 79.265625 148.710938 79.554688 C 148.621094 79.84375 148.484375 80.109375 148.308594 80.335938 C 148.054688 80.664062 147.714844 80.914062 147.324219 81.117188 C 146.933594 81.304688 146.480469 81.433594 146.027344 81.484375 C 145.851562 81.507812 145.6875 81.507812 145.507812 81.507812 C 144.742188 81.507812 143.960938 81.320312 143.265625 80.964844 C 142.574219 80.613281 141.957031 80.109375 141.5 79.480469 C 141.109375 78.949219 140.847656 78.421875 140.667969 77.890625 C 140.492188 77.363281 140.417969 76.84375 140.417969 76.316406 C 140.417969 75.710938 140.519531 75.105469 140.71875 74.488281 C 140.808594 74.210938 140.921875 73.933594 141.046875 73.644531 C 141.375 73.632812 141.714844 73.605469 142.070312 73.605469 Z M 180.132812 63.058594 C 181.039062 63.5625 181.882812 64.214844 182.550781 64.996094 C 182.878906 65.386719 183.167969 65.804688 183.394531 66.246094 C 183.621094 66.6875 183.785156 67.140625 183.886719 67.632812 C 183.949219 67.933594 183.976562 68.25 183.976562 68.5625 C 183.976562 69.507812 183.699219 70.480469 183.195312 71.3125 C 182.703125 72.144531 181.984375 72.835938 181.140625 73.253906 C 180.445312 73.59375 179.675781 73.769531 178.882812 73.769531 C 178.152344 73.769531 177.410156 73.617188 176.742188 73.339844 C 176.058594 73.0625 175.457031 72.648438 174.964844 72.117188 C 174.410156 71.511719 174.03125 70.933594 173.792969 70.390625 C 173.550781 69.851562 173.453125 69.332031 173.453125 68.828125 C 173.453125 68.414062 173.527344 68.011719 173.652344 67.605469 C 173.890625 66.902344 174.332031 66.207031 174.925781 65.550781 C 175.808594 64.570312 177.019531 63.660156 178.304688 62.917969 C 178.554688 62.78125 178.808594 62.640625 179.046875 62.503906 C 179.425781 62.679688 179.777344 62.855469 180.132812 63.058594 Z M 215.988281 71.675781 C 216.464844 72.773438 216.730469 73.859375 216.730469 74.902344 C 216.730469 75.734375 216.566406 76.542969 216.214844 77.335938 C 215.847656 78.128906 215.292969 78.910156 214.476562 79.679688 C 213.945312 80.171875 213.328125 80.539062 212.671875 80.777344 C 212.019531 81.015625 211.324219 81.144531 210.644531 81.144531 C 210.027344 81.144531 209.421875 81.042969 208.867188 80.851562 C 208.449219 80.714844 208.058594 80.523438 207.707031 80.285156 C 207.179688 79.933594 206.75 79.480469 206.445312 78.925781 C 206.144531 78.371094 205.96875 77.714844 205.96875 76.933594 C 205.96875 76.65625 205.992188 76.351562 206.042969 76.039062 C 206.195312 75.117188 206.597656 74.25 207.179688 73.492188 C 207.757812 72.734375 208.515625 72.09375 209.359375 71.628906 C 210.769531 70.859375 212.257812 70.292969 213.78125 69.9375 C 214.160156 69.851562 214.539062 69.773438 214.929688 69.699219 C 215.34375 70.367188 215.710938 71.023438 215.988281 71.675781 Z M 244.320312 97.5 C 244.21875 98.460938 243.941406 99.429688 243.527344 100.351562 C 242.894531 101.722656 241.925781 102.960938 240.777344 103.828125 C 240.210938 104.269531 239.59375 104.621094 238.953125 104.863281 C 238.308594 105.101562 237.640625 105.226562 236.960938 105.226562 C 236.457031 105.226562 235.9375 105.152344 235.421875 105 C 234.90625 104.851562 234.363281 104.609375 233.835938 104.28125 C 232.988281 103.753906 232.347656 103.046875 231.90625 102.226562 C 231.464844 101.410156 231.238281 100.488281 231.238281 99.554688 C 231.238281 98.625 231.464844 97.679688 231.929688 96.808594 C 232.285156 96.152344 232.6875 95.597656 233.128906 95.144531 C 233.785156 94.464844 234.503906 94 235.296875 93.695312 C 236.078125 93.394531 236.921875 93.253906 237.816406 93.253906 C 238.609375 93.253906 239.441406 93.367188 240.273438 93.582031 C 241.523438 93.898438 242.769531 94.4375 243.917969 95.105469 C 244.105469 95.21875 244.28125 95.335938 244.457031 95.449219 C 244.433594 96.128906 244.382812 96.808594 244.320312 97.5 Z M 189.027344 134.820312 C 189.027344 133.800781 189.179688 132.777344 189.496094 131.796875 C 189.824219 130.800781 190.316406 129.828125 191.03125 128.882812 C 191.5 128.253906 192.054688 127.761719 192.660156 127.371094 C 193.578125 126.78125 194.648438 126.414062 195.824219 126.1875 C 197.007812 125.960938 198.292969 125.898438 199.601562 125.898438 C 200.613281 125.898438 201.644531 125.933594 202.652344 125.972656 C 203.675781 126.011719 204.683594 126.0625 205.640625 126.0625 C 206.054688 126.0625 206.460938 126.046875 206.863281 126.035156 C 208.578125 125.960938 210.292969 125.59375 211.980469 125.265625 C 213.667969 124.9375 215.320312 124.636719 216.882812 124.636719 C 217.902344 124.636719 218.875 124.761719 219.820312 125.078125 C 221.824219 125.757812 223.738281 126.78125 225.351562 128.117188 C 226.964844 129.453125 228.289062 131.078125 229.109375 132.980469 C 229.664062 134.253906 229.941406 135.675781 229.941406 137.089844 C 229.941406 138.449219 229.675781 139.8125 229.160156 141.035156 C 228.640625 142.257812 227.859375 143.328125 226.828125 144.160156 C 225.917969 144.890625 224.859375 145.394531 223.714844 145.734375 C 222.578125 146.0625 221.355469 146.214844 220.148438 146.214844 C 219.984375 146.214844 219.808594 146.214844 219.644531 146.203125 C 217.964844 146.152344 216.351562 145.847656 214.753906 145.371094 C 212.371094 144.652344 210.050781 143.542969 207.757812 142.28125 C 205.464844 141.019531 203.207031 139.609375 200.925781 138.324219 C 198.179688 136.761719 195.230469 135.917969 192.207031 135.414062 C 191.148438 135.238281 190.074219 135.109375 189.003906 134.996094 C 189.027344 134.921875 189.027344 134.871094 189.027344 134.820312 Z M 149.78125 105.039062 C 151.195312 103.222656 152.832031 101.359375 154.609375 99.960938 C 155.503906 99.265625 156.425781 98.6875 157.371094 98.296875 C 158.316406 97.890625 159.285156 97.679688 160.269531 97.679688 C 160.824219 97.679688 161.390625 97.753906 161.96875 97.90625 C 162.410156 98.019531 162.789062 98.183594 163.078125 98.371094 C 163.53125 98.660156 163.835938 99 164.035156 99.390625 C 164.238281 99.78125 164.339844 100.238281 164.339844 100.714844 C 164.339844 101.28125 164.199219 101.914062 163.921875 102.503906 C 163.644531 103.109375 163.242188 103.691406 162.75 104.179688 C 162.273438 104.648438 161.679688 105.101562 160.972656 105.53125 C 159.929688 106.160156 158.679688 106.703125 157.371094 107.09375 C 156.058594 107.472656 154.671875 107.699219 153.363281 107.699219 C 152.1875 107.699219 151.066406 107.523438 150.109375 107.144531 C 149.632812 106.953125 149.175781 106.714844 148.773438 106.414062 C 148.761719 106.414062 148.761719 106.398438 148.75 106.386719 C 149.089844 105.945312 149.429688 105.492188 149.78125 105.039062 Z M 198.582031 93.632812 C 200.296875 91.957031 202.226562 90.542969 204.378906 89.472656 C 206.523438 88.402344 208.878906 87.683594 211.414062 87.382812 C 212.082031 87.304688 212.773438 87.253906 213.453125 87.253906 C 214.4375 87.253906 215.40625 87.34375 216.328125 87.558594 C 217.25 87.773438 218.128906 88.113281 218.9375 88.589844 C 219.84375 89.132812 220.636719 89.925781 221.207031 90.835938 C 221.484375 91.289062 221.710938 91.765625 221.859375 92.257812 C 222.011719 92.75 222.089844 93.253906 222.089844 93.757812 C 222.089844 94.097656 222.050781 94.4375 221.972656 94.78125 C 221.796875 95.523438 221.457031 96.179688 220.992188 96.757812 C 220.636719 97.1875 220.210938 97.589844 219.730469 97.929688 C 219.011719 98.460938 218.15625 98.875 217.25 99.203125 C 216.339844 99.53125 215.382812 99.757812 214.449219 99.882812 C 213.277344 100.046875 212.117188 100.125 210.945312 100.125 C 206.789062 100.125 202.652344 99.113281 198.695312 97.464844 C 197.851562 97.109375 197.007812 96.71875 196.175781 96.316406 C 196.917969 95.382812 197.726562 94.476562 198.582031 93.632812 Z M 190.074219 105.832031 C 189.371094 108.328125 189.066406 110.910156 188.601562 113.394531 C 188.359375 114.628906 188.097656 115.851562 187.71875 117.011719 C 187.339844 118.171875 186.847656 119.292969 186.195312 120.339844 C 185.335938 121.714844 184.203125 122.898438 182.902344 123.90625 C 181.605469 124.914062 180.144531 125.746094 178.617188 126.425781 C 176.273438 127.460938 173.691406 128.128906 171.183594 128.128906 C 169.558594 128.128906 167.96875 127.851562 166.496094 127.234375 C 164.929688 126.578125 163.519531 125.417969 162.511719 124.019531 C 162.007812 123.3125 161.605469 122.558594 161.328125 121.777344 C 161.050781 120.996094 160.898438 120.175781 160.898438 119.367188 C 160.898438 118.765625 160.988281 118.160156 161.152344 117.566406 C 161.3125 117 161.566406 116.457031 161.855469 115.941406 C 162.308594 115.171875 162.902344 114.453125 163.570312 113.785156 C 164.238281 113.117188 164.996094 112.511719 165.761719 111.945312 C 168.863281 109.675781 172.355469 108 176.046875 106.890625 C 179.726562 105.78125 183.609375 105.226562 187.480469 105.242188 C 188.386719 105.242188 189.292969 105.265625 190.203125 105.328125 C 190.175781 105.492188 190.125 105.65625 190.074219 105.832031 Z M 190.074219 105.832031 " fill-opacity="1" fill-rule="nonzero"/></g><g clip-path="url(#d914db0b50)"><g clip-path="url(#1a43d230ed)"><g clip-path="url(#37fbfedd66)"><path fill="#ffffff" d="M 187.917969 230.378906 C 187.621094 230.152344 187.503906 229.875 187.578125 229.582031 C 187.648438 229.289062 188.011719 229.019531 188.261719 229.074219 C 188.367188 229.09375 189.304688 229.523438 190.34375 230.027344 C 192.109375 230.878906 192.273438 230.945312 192.90625 231.054688 C 193.277344 231.121094 193.570312 231.132812 193.550781 231.082031 C 193.363281 230.898438 193.152344 230.734375 192.921875 230.601562 C 192.464844 230.300781 191.964844 230.0625 190.808594 229.589844 C 189.976562 229.246094 188.863281 228.753906 188.332031 228.492188 C 187.425781 228.046875 187.351562 227.996094 187.0625 227.625 C 186.65625 227.09375 186.585938 226.636719 186.835938 226.125 C 187.066406 225.660156 187.390625 225.394531 187.96875 225.195312 C 188.550781 224.996094 189.171875 224.992188 190.128906 225.1875 C 190.878906 225.335938 190.992188 225.382812 193.960938 226.785156 C 197.042969 228.242188 197.429688 228.386719 197.542969 228.152344 C 197.617188 228 197.527344 227.859375 197.066406 227.40625 C 196.652344 226.992188 196.636719 226.984375 193.117188 225.253906 C 189.375 223.414062 189.15625 223.285156 188.613281 222.613281 C 187.710938 221.5 188.054688 220.125 189.34375 219.6875 C 190.609375 219.253906 192.4375 219.757812 196.914062 221.757812 C 198.972656 222.679688 199.582031 222.90625 200.410156 223.0625 C 200.914062 223.15625 201.558594 223.046875 201.652344 222.851562 C 201.9375 222.277344 200.382812 221.296875 198.09375 220.605469 C 194.734375 219.589844 193.125 218.859375 190.632812 217.21875 C 189.21875 216.289062 189.085938 216.183594 189.015625 215.957031 C 188.917969 215.636719 189.039062 215.390625 189.359375 215.253906 C 189.71875 215.101562 190.039062 215.234375 191.40625 216.121094 C 193.464844 217.453125 195.523438 218.355469 198.324219 219.160156 C 199.40625 219.46875 201.371094 220.339844 201.917969 220.746094 C 202.753906 221.371094 203.230469 222.214844 203.132812 222.902344 C 203.078125 223.15625 202.984375 223.394531 202.855469 223.621094 C 202.335938 224.503906 201.21875 224.757812 199.589844 224.359375 C 199.0625 224.230469 197.867188 223.742188 194.847656 222.425781 C 192.738281 221.503906 191.164062 221.015625 190.316406 221.023438 C 189.84375 221.027344 189.71875 221.058594 189.621094 221.207031 C 189.523438 221.363281 189.539062 221.4375 189.71875 221.671875 C 190.078125 222.15625 190.925781 222.636719 194.238281 224.234375 C 197.292969 225.710938 197.363281 225.75 197.871094 226.199219 C 198.136719 226.429688 198.382812 226.679688 198.609375 226.945312 C 199.253906 227.792969 199.199219 228.75 198.476562 229.316406 C 198.128906 229.585938 197.652344 229.695312 197.039062 229.652344 C 196.628906 229.621094 196.414062 229.53125 193.582031 228.1875 C 190.753906 226.847656 190.511719 226.746094 189.824219 226.597656 C 189.09375 226.4375 188.605469 226.441406 188.339844 226.609375 C 188.265625 226.652344 188.21875 226.730469 188.234375 226.777344 C 188.277344 226.90625 189.601562 227.535156 191.261719 228.214844 C 192.910156 228.890625 193.792969 229.375 194.503906 229.980469 C 195.476562 230.808594 195.648438 231.664062 194.960938 232.265625 C 194.523438 232.644531 193.820312 232.703125 192.585938 232.457031 C 191.785156 232.296875 191.65625 232.246094 189.953125 231.425781 C 188.964844 230.953125 188.050781 230.480469 187.917969 230.378906 Z M 191.621094 215.207031 C 190.328125 214.308594 189.703125 213.523438 189.234375 212.195312 C 188.914062 211.289062 188.761719 210.351562 188.78125 209.386719 C 188.773438 208.199219 188.960938 207.152344 189.582031 204.910156 C 189.871094 203.878906 190.15625 202.796875 190.21875 202.511719 C 190.515625 201.140625 190.5625 199.761719 190.363281 198.375 C 190.222656 197.472656 189.488281 191.992188 189.460938 191.613281 C 189.414062 191.027344 189.226562 189.203125 189.070312 187.78125 C 188.902344 186.246094 188.824219 182.480469 188.9375 181.15625 C 189.101562 179.171875 189.488281 177.710938 190.269531 176.121094 C 191.445312 173.734375 193.058594 171.652344 195.253906 169.695312 C 198.5 166.796875 202.113281 164.828125 205.113281 164.320312 C 206.621094 164.09375 208.113281 164.160156 209.59375 164.523438 C 211.433594 165 212.78125 165.5 215.597656 166.738281 C 218.683594 168.089844 221.023438 169.398438 223.003906 170.882812 C 224.917969 172.308594 225.789062 173.078125 226.996094 174.402344 C 229.023438 176.625 230.679688 179.945312 231.398438 183.234375 C 231.960938 185.824219 231.910156 188.21875 231.238281 190.871094 C 231.019531 191.71875 230.863281 192.136719 230.335938 193.289062 C 230.003906 194.015625 229.636719 194.722656 229.230469 195.414062 C 228.492188 196.589844 227.148438 198.109375 225.863281 199.226562 C 224.878906 200.082031 222.046875 202.203125 220.714844 203.082031 C 219.207031 204.074219 216.128906 206.195312 215.511719 206.660156 C 213.703125 208.035156 212.019531 209.664062 210.851562 211.183594 C 210.054688 212.21875 209.421875 213.25 208.324219 215.304688 C 207.214844 217.378906 206.652344 218.066406 205.636719 218.574219 C 204.179688 219.304688 202.039062 219.125 199.363281 218.039062 C 198.511719 217.691406 197.636719 217.425781 196.738281 217.242188 C 195.785156 217.050781 194.859375 216.769531 193.960938 216.402344 C 192.832031 215.960938 192.363281 215.722656 191.621094 215.207031 Z M 194.945312 213.941406 C 195.773438 212.25 196.457031 210.59375 197.441406 207.875 C 200.425781 199.660156 202.128906 193.992188 203.398438 188.0625 C 203.542969 187.378906 203.691406 186.652344 203.726562 186.453125 L 203.785156 186.089844 L 203.367188 185.773438 C 202.464844 185.097656 202.054688 184.492188 201.703125 183.316406 C 201.289062 181.84375 201.410156 180.417969 202.070312 179.039062 C 202.453125 178.265625 202.796875 177.9375 203.269531 177.894531 C 203.945312 177.832031 204.765625 178.542969 205.144531 179.523438 C 205.503906 180.453125 205.640625 182.097656 205.503906 183.953125 C 205.464844 184.496094 205.472656 184.957031 205.519531 184.980469 C 205.773438 185.105469 207.261719 184.53125 207.398438 184.253906 C 207.449219 184.03125 207.472656 183.804688 207.46875 183.574219 C 207.492188 183.117188 207.546875 182.660156 207.632812 182.207031 C 207.765625 181.511719 207.855469 181.253906 208.257812 180.429688 C 208.683594 179.558594 208.757812 179.441406 209.042969 179.238281 C 209.585938 178.847656 210.277344 178.929688 210.648438 179.429688 C 210.945312 179.828125 211.105469 180.652344 211.007812 181.28125 C 210.882812 182.074219 210.308594 183.238281 209.59375 184.144531 L 209.089844 184.785156 L 209.242188 185.144531 C 209.605469 185.988281 210.359375 186.753906 211.066406 187 C 211.230469 187.066406 211.398438 187.097656 211.574219 187.085938 C 211.746094 186.933594 211.890625 186.765625 212.015625 186.574219 C 212.753906 185.550781 214.316406 183.855469 214.949219 183.390625 C 215.410156 183.058594 215.527344 183.003906 215.96875 182.941406 C 216.71875 182.835938 217.453125 183.429688 217.578125 184.238281 C 217.628906 184.578125 217.601562 184.695312 217.320312 185.324219 C 217.03125 185.964844 216.949219 186.085938 216.445312 186.589844 C 215.257812 187.777344 213.917969 188.476562 212.625 188.578125 C 212.4375 188.59375 212.285156 188.675781 212.164062 188.820312 C 211.84375 189.195312 209.929688 192.117188 209.136719 193.449219 C 208.71875 194.148438 208.148438 195.105469 207.863281 195.574219 C 207.0625 196.894531 204.457031 202.082031 203.613281 204.046875 C 201.316406 209.371094 199.804688 213.6875 199.507812 215.785156 C 199.460938 216.019531 199.445312 216.257812 199.460938 216.496094 C 199.523438 216.59375 200.898438 217.09375 201.675781 217.300781 C 203.011719 217.65625 204.324219 217.65625 205.003906 217.296875 C 205.636719 216.960938 206.035156 216.457031 206.855469 214.980469 C 209.261719 210.628906 210.175781 209.394531 212.546875 207.261719 C 213.933594 206.019531 215.152344 205.113281 218.3125 202.96875 C 223.390625 199.527344 225.335938 197.972656 226.945312 196.078125 C 227.71875 195.179688 228.359375 194.191406 228.855469 193.113281 C 230.421875 189.929688 230.753906 186.457031 229.839844 182.902344 C 229.367188 181.074219 228.703125 179.496094 227.621094 177.644531 C 226.765625 176.179688 225.367188 174.601562 223.769531 173.292969 C 222.574219 172.328125 221.332031 171.429688 220.042969 170.597656 C 218.925781 169.914062 215.046875 168.007812 213.363281 167.320312 C 211.992188 166.769531 210.589844 166.292969 209.167969 165.894531 C 208.074219 165.640625 206.96875 165.566406 205.847656 165.667969 C 203.769531 165.910156 201.144531 167.046875 198.78125 168.726562 C 195.71875 170.90625 193.695312 173.039062 192.003906 175.871094 C 191.074219 177.46875 190.539062 179.1875 190.394531 181.03125 C 190.265625 182.5 190.355469 186.265625 190.574219 188.324219 C 190.6875 189.429688 190.828125 190.773438 190.882812 191.3125 C 190.972656 192.183594 191.4375 195.691406 191.8125 198.363281 C 192.105469 200.441406 191.929688 201.894531 190.960938 205.355469 C 190.402344 207.351562 190.199219 208.433594 190.207031 209.359375 C 190.222656 210.734375 190.542969 211.953125 191.109375 212.789062 C 191.332031 213.121094 192.027344 213.746094 192.6875 214.214844 C 192.777344 214.277344 193.195312 214.503906 193.613281 214.71875 L 194.378906 215.105469 Z M 196.476562 215.816406 C 196.726562 215.890625 196.984375 215.933594 197.246094 215.9375 C 197.398438 215.925781 197.550781 215.941406 197.695312 215.984375 C 197.886719 216.039062 197.996094 216.03125 198.003906 215.964844 C 198.175781 214.0625 200.007812 208.699219 202.195312 203.695312 C 204.007812 199.550781 206.652344 194.570312 208.816406 191.210938 C 209.148438 190.699219 210.347656 188.894531 210.507812 188.664062 L 210.652344 188.460938 L 210.046875 188.109375 C 209.714844 187.917969 209.402344 187.695312 209.109375 187.449219 C 208.675781 187.007812 208.320312 186.515625 208.035156 185.972656 L 207.910156 185.71875 L 207.597656 185.871094 C 207.039062 186.171875 206.441406 186.351562 205.808594 186.414062 C 205.507812 186.433594 205.242188 186.488281 205.21875 186.53125 C 205.191406 186.578125 205.042969 187.242188 204.886719 188.007812 C 204.613281 189.316406 204.449219 190.015625 203.792969 192.691406 C 202.832031 196.585938 201.027344 202.257812 198.785156 208.40625 C 198.226562 209.9375 197.902344 210.695312 196.859375 212.890625 C 195.679688 215.367188 195.609375 215.535156 195.730469 215.59375 C 195.976562 215.679688 196.222656 215.753906 196.476562 215.816406 Z M 204.101562 183.484375 C 204.132812 182.921875 204.136719 182.363281 204.113281 181.800781 C 204.0625 180.957031 203.6875 179.554688 203.503906 179.53125 C 203.425781 179.519531 203.347656 179.625 203.246094 179.867188 C 202.828125 180.917969 202.789062 181.984375 203.128906 183.0625 C 203.339844 183.675781 203.804688 184.40625 203.972656 184.390625 C 204.011719 184.386719 204.070312 183.980469 204.101562 183.484375 Z M 214.136719 186.597656 C 214.851562 186.210938 216.015625 185.046875 216.101562 184.636719 C 216.140625 184.4375 215.988281 184.347656 215.839844 184.484375 C 215.015625 185.234375 213.71875 186.65625 213.820312 186.707031 C 213.851562 186.722656 213.996094 186.671875 214.136719 186.597656 Z M 209.539062 181.171875 C 209.527344 181.027344 209.515625 181.03125 209.4375 181.1875 C 209.367188 181.34375 209.308594 181.507812 209.261719 181.675781 L 209.175781 181.988281 L 209.363281 181.660156 C 209.457031 181.507812 209.515625 181.347656 209.539062 181.171875 Z M 178.945312 195.976562 C 178.847656 195.855469 178.804688 195.714844 178.8125 195.558594 C 178.824219 195.402344 178.882812 195.269531 178.996094 195.164062 C 179.316406 194.847656 181.160156 194.6875 183.480469 194.773438 C 184.25 194.800781 185.296875 194.828125 185.808594 194.835938 C 186.511719 194.84375 186.78125 194.878906 186.890625 194.984375 C 187.148438 195.226562 187.1875 195.441406 187.027344 195.765625 C 186.902344 196.023438 186.824219 196.082031 186.5 196.167969 C 186.140625 196.265625 185.308594 196.277344 184.375 196.199219 C 182.753906 196.0625 181.171875 196.050781 180.332031 196.167969 C 179.816406 196.242188 179.261719 196.246094 179.136719 196.183594 C 179.0625 196.121094 179 196.054688 178.945312 195.976562 Z M 220.414062 213.890625 C 219.464844 212.929688 218.742188 211.820312 218.25 210.5625 C 217.976562 209.816406 217.949219 209.527344 218.121094 209.175781 C 218.1875 209 218.316406 208.898438 218.503906 208.871094 C 218.949219 208.777344 219.074219 208.910156 219.382812 209.8125 C 219.566406 210.335938 219.800781 210.835938 220.085938 211.3125 C 220.464844 211.914062 220.710938 212.210938 221.664062 213.207031 C 222.015625 213.570312 222.109375 213.867188 221.96875 214.15625 C 221.71875 214.664062 221.101562 214.558594 220.414062 213.890625 Z M 229.042969 208.050781 C 228.992188 208.011719 228.421875 207.59375 227.78125 207.121094 C 226.480469 206.171875 225.390625 205.246094 225.210938 204.949219 C 225.136719 204.808594 225.117188 204.660156 225.15625 204.503906 C 225.199219 204.347656 225.285156 204.226562 225.421875 204.140625 C 225.777344 203.929688 225.984375 204.003906 226.65625 204.574219 C 226.992188 204.859375 227.808594 205.480469 228.476562 205.957031 C 229.808594 206.90625 230.171875 207.242188 230.21875 207.554688 C 230.320312 208.191406 229.605469 208.492188 229.042969 208.050781 Z M 180.265625 181.9375 C 179.632812 181.53125 179.484375 181.269531 179.648438 180.863281 C 179.734375 180.644531 179.816406 180.554688 179.96875 180.511719 C 180.15625 180.457031 180.386719 180.550781 182.425781 181.519531 C 183.664062 182.105469 184.839844 182.664062 185.03125 182.757812 C 185.4375 182.953125 185.628906 183.246094 185.582031 183.59375 C 185.550781 183.746094 185.472656 183.875 185.347656 183.972656 C 185.222656 184.070312 185.082031 184.117188 184.925781 184.113281 C 184.632812 184.113281 181.03125 182.429688 180.265625 181.9375 Z M 233.824219 197.238281 C 232.808594 196.671875 232.355469 196.371094 232.1875 196.148438 C 231.824219 195.671875 231.898438 195.214844 232.363281 195.054688 C 232.65625 194.957031 232.769531 194.996094 233.21875 195.347656 C 233.386719 195.480469 234.429688 196.0625 235.535156 196.644531 C 237.3125 197.574219 237.558594 197.722656 237.675781 197.925781 C 237.804688 198.117188 237.8125 198.320312 237.707031 198.527344 C 237.601562 198.734375 237.433594 198.839844 237.199219 198.851562 C 236.914062 198.855469 235.640625 198.25 233.824219 197.238281 Z M 191.410156 167.515625 C 191.222656 167.308594 191.050781 167.085938 190.890625 166.855469 C 189.996094 165.570312 189.101562 164.363281 188.679688 163.863281 C 188.109375 163.195312 187.988281 162.855469 188.207031 162.566406 C 188.296875 162.441406 188.417969 162.359375 188.570312 162.324219 C 188.71875 162.289062 188.867188 162.304688 189.003906 162.378906 C 189.277344 162.582031 189.523438 162.8125 189.738281 163.074219 C 190.453125 163.890625 192.464844 166.632812 192.5625 166.925781 C 192.613281 167.09375 192.601562 167.253906 192.53125 167.410156 C 192.457031 167.566406 192.34375 167.679688 192.183594 167.75 C 192.097656 167.789062 192.003906 167.800781 191.90625 167.789062 C 191.851562 167.769531 191.789062 167.753906 191.730469 167.746094 C 191.605469 167.695312 191.5 167.617188 191.410156 167.515625 Z M 235.398438 187.71875 C 235.050781 187.335938 235.117188 186.847656 235.539062 186.652344 C 235.714844 186.574219 235.832031 186.601562 236.429688 186.871094 C 237.378906 187.265625 238.363281 187.507812 239.386719 187.589844 C 240.25 187.671875 240.523438 187.777344 240.625 188.078125 C 240.6875 188.386719 240.597656 188.632812 240.347656 188.824219 C 239.730469 189.269531 236.058594 188.449219 235.398438 187.71875 Z M 231.710938 175.414062 C 231.574219 175.164062 231.671875 174.816406 231.945312 174.582031 C 232.066406 174.480469 232.539062 174.273438 232.996094 174.125 C 234.113281 173.757812 236.808594 173.027344 237.253906 172.96875 C 237.921875 172.878906 238.308594 173.296875 238.046875 173.832031 C 237.949219 174.03125 237.808594 174.113281 237.207031 174.320312 C 236.8125 174.460938 235.898438 174.71875 235.175781 174.894531 C 234.457031 175.070312 233.492188 175.34375 233.039062 175.5 C 232.15625 175.808594 231.921875 175.792969 231.710938 175.414062 Z M 201.613281 159.71875 C 201.441406 159.488281 199.625 156.273438 199.136719 155.335938 C 198.925781 154.933594 198.929688 154.628906 199.136719 154.378906 C 199.3125 154.171875 199.75 154.152344 199.976562 154.34375 C 200.203125 154.539062 202.863281 159.128906 202.871094 159.34375 C 202.882812 159.671875 202.652344 160.007812 202.371094 160.066406 C 202.050781 160.136719 201.859375 160.046875 201.609375 159.71875 Z M 224.414062 168.152344 C 224.199219 167.707031 224.4375 167.339844 225.589844 166.335938 C 226.425781 165.605469 228.316406 164.238281 228.652344 164.121094 C 229.054688 163.976562 229.398438 164.117188 229.507812 164.472656 C 229.613281 164.820312 229.4375 165.101562 228.863281 165.519531 C 227.769531 166.308594 226.289062 167.464844 225.875 167.847656 C 225.253906 168.425781 225.164062 168.484375 224.925781 168.480469 C 224.628906 168.472656 224.539062 168.414062 224.414062 168.152344 Z M 215.855469 161.796875 C 215.605469 161.460938 215.65625 161.261719 216.273438 160.117188 C 216.90625 158.9375 217.988281 157.292969 218.410156 156.863281 C 218.777344 156.492188 219.003906 156.433594 219.328125 156.625 C 219.503906 156.714844 219.605469 156.855469 219.632812 157.050781 L 219.683594 157.316406 L 218.867188 158.488281 C 217.953125 159.804688 217.320312 160.808594 216.996094 161.460938 C 216.839844 161.773438 216.722656 161.925781 216.582031 161.984375 C 216.453125 162.042969 216.320312 162.050781 216.183594 162.015625 C 216.050781 161.980469 215.9375 161.90625 215.855469 161.796875 Z M 215.855469 161.796875 " fill-opacity="1" fill-rule="nonzero"/></g></g></g><g fill="#ffffff" fill-opacity="1"><g transform="translate(129.699298, 274.983923)"><g><path d="M 30.34375 0 L 23.765625 0 L 21.390625 -7.296875 L 9.28125 -7.296875 L 6.90625 0 L 0.46875 0 L 11.40625 -31.625 L 19.421875 -31.625 Z M 15.03125 -25.03125 L 10.96875 -12.546875 L 19.65625 -12.546875 L 15.578125 -25.03125 Z M 15.03125 -25.03125 "/></g></g></g><g fill="#ffffff" fill-opacity="1"><g transform="translate(160.520999, 274.983923)"><g><path d="M 10.359375 0 L 4.109375 0 L 4.109375 -31.625 L 10.359375 -31.625 Z M 10.359375 0 "/></g></g></g><g fill="#ffffff" fill-opacity="1"><g transform="translate(175.012606, 274.983923)"><g><path d="M 10.359375 0 L 4.109375 0 L 4.109375 -31.625 L 10.359375 -31.625 Z M 10.359375 0 "/></g></g></g><g fill="#ffffff" fill-opacity="1"><g transform="translate(189.504213, 274.983923)"><g><path d="M 25.34375 -31.625 L 25.34375 -26.359375 L 16.21875 -26.359375 L 16.21875 0 L 10 0 L 10 -26.359375 L 0.859375 -26.359375 L 0.859375 -31.625 Z M 25.34375 -31.625 "/></g></g></g><g fill="#ffffff" fill-opacity="1"><g transform="translate(215.71888, 274.983923)"><g><path d="M 4.109375 0 L 4.109375 -31.625 L 16.8125 -31.625 C 20.082031 -31.625 22.550781 -30.867188 24.21875 -29.359375 C 25.882812 -27.847656 26.71875 -25.769531 26.71875 -23.125 C 26.71875 -21.207031 26.226562 -19.632812 25.25 -18.40625 C 24.28125 -17.175781 22.828125 -16.238281 20.890625 -15.59375 L 20.890625 -15.140625 C 21.890625 -14.703125 22.691406 -14.054688 23.296875 -13.203125 C 23.910156 -12.359375 24.492188 -11.101562 25.046875 -9.4375 L 28.203125 0 L 21.78125 0 L 18.6875 -9.453125 C 18.375 -10.398438 18.015625 -11.132812 17.609375 -11.65625 C 17.210938 -12.1875 16.707031 -12.570312 16.09375 -12.8125 C 15.488281 -13.050781 14.695312 -13.171875 13.71875 -13.171875 L 10.359375 -13.171875 L 10.359375 0 Z M 16.046875 -18.125 C 19.078125 -18.125 20.59375 -19.535156 20.59375 -22.359375 C 20.59375 -25.234375 19.078125 -26.671875 16.046875 -26.671875 L 10.359375 -26.671875 L 10.359375 -18.125 Z M 16.046875 -18.125 "/></g></g></g></svg>